<svg width="15" height="15" viewBox="0 0 15 15" fill="none" xmlns="http://www.w3.org/2000/svg">
<path d="M7.5 0C7.33664 1.06458e-05 7.17977 0.0639844 7.06299 0.178223L0.245361 5.75439C0.237487 5.76031 0.229754 5.76642 0.222168 5.77271L0.198975 5.79224V5.79346C0.136289 5.85185 0.0862791 5.92252 0.0520502 6.00105C0.0178213 6.07959 0.000104422 6.16433 0 6.25C0 6.41576 0.065848 6.57473 0.183058 6.69194C0.300268 6.80915 0.45924 6.875 0.625 6.875H1.25V13.75C1.25 14.4406 1.80938 15 2.5 15H12.5C13.1906 15 13.75 14.4406 13.75 13.75V6.875H14.375C14.5408 6.875 14.6997 6.80915 14.8169 6.69194C14.9342 6.57473 15 6.41576 15 6.25C15.0001 6.16412 14.9824 6.07915 14.9482 6.00039C14.914 5.92163 14.8639 5.85077 14.801 5.79224L14.7913 5.78491C14.7775 5.77249 14.7633 5.76067 14.7485 5.74951L13.75 4.93286V2.5C13.75 2.155 13.47 1.875 13.125 1.875H12.5C12.155 1.875 11.875 2.155 11.875 2.5V3.39966L7.92358 0.167236C7.80845 0.0602038 7.6572 0.000490834 7.5 0ZM9.375 8.125H11.875V13.125H9.375V8.125Z" fill="black"/>
</svg>
